<svg width="36" height="36" viewBox="0 0 36 36" fill="none" xmlns="http://www.w3.org/2000/svg">
<g filter="url(#filter0_d_1_14)">
<rect x="2" y="1" width="32" height="32" rx="4" fill="url(#paint0_linear_1_14)"/>
<path d="M15 8H10C9.44772 8 9 8.44772 9 9V14C9 14.5523 9.44772 15 10 15H15C15.5523 15 16 14.5523 16 14V9C16 8.44772 15.5523 8 15 8Z" stroke="white" stroke-width="1.5" stroke-linecap="round" stroke-linejoin="round"/>
<path d="M15 19H10C9.44772 19 9 19.4477 9 20V25C9 25.5523 9.44772 26 10 26H15C15.5523 26 16 25.5523 16 25V20C16 19.4477 15.5523 19 15 19Z" stroke="white" stroke-width="1.5" stroke-linecap="round" stroke-linejoin="round"/>
<path d="M26 8H21C20.4477 8 20 8.44772 20 9V14C20 14.5523 20.4477 15 21 15H26C26.5523 15 27 14.5523 27 14V9C27 8.44772 26.5523 8 26 8Z" stroke="white" stroke-width="1.5" stroke-linecap="round" stroke-linejoin="round"/>
<path d="M26 19H21C20.4477 19 20 19.4477 20 20V25C20 25.5523 20.4477 26 21 26H26C26.5523 26 27 25.5523 27 25V20C27 19.4477 26.5523 19 26 19Z" stroke="white" stroke-width="1.5" stroke-linecap="round" stroke-linejoin="round"/>
</g>
<defs>
<filter id="filter0_d_1_14" x="0" y="0" width="36" height="36" filterUnits="userSpaceOnUse" color-interpolation-filters="sRGB">
<feFlood flood-opacity="0" result="BackgroundImageFix"/>
<feColorMatrix in="SourceAlpha" type="matrix" values="0 0 0 0 0 0 0 0 0 0 0 0 0 0 0 0 0 0 127 0" result="hardAlpha"/>
<feOffset dy="1"/>
<feGaussianBlur stdDeviation="1"/>
<feComposite in2="hardAlpha" operator="out"/>
<feColorMatrix type="matrix" values="0 0 0 0 0 0 0 0 0 0 0 0 0 0 0 0 0 0 0.05 0"/>
<feBlend mode="normal" in2="BackgroundImageFix" result="effect1_dropShadow_1_14"/>
<feBlend mode="normal" in="SourceGraphic" in2="effect1_dropShadow_1_14" result="shape"/>
</filter>
<linearGradient id="paint0_linear_1_14" x1="18" y1="1" x2="18" y2="33" gradientUnits="userSpaceOnUse">
<stop stop-color="#6366F1"/>
<stop offset="1" stop-color="#A855F7"/>
</linearGradient>
</defs>
</svg>
