<svg width="36" height="36" viewBox="0 0 36 36" fill="none" xmlns="http://www.w3.org/2000/svg">
<g filter="url(#filter0_d_1_14)">
<rect x="2" y="1" width="32" height="32" rx="4" fill="url(#paint0_linear_1_14)"/>
<path d="M14.75 7.25H9.33333C8.73502 7.25 8.25 7.73502 8.25 8.33333V13.75C8.25 14.3483 8.73502 14.8333 9.33333 14.8333H14.75C15.3483 14.8333 15.8333 14.3483 15.8333 13.75V8.33333C15.8333 7.73502 15.3483 7.25 14.75 7.25Z" stroke="white" stroke-width="2" stroke-linecap="round" stroke-linejoin="round"/>
<path d="M26.6667 7.25H21.25C20.6517 7.25 20.1667 7.73502 20.1667 8.33333V13.75C20.1667 14.3483 20.6517 14.8333 21.25 14.8333H26.6667C27.265 14.8333 27.75 14.3483 27.75 13.75V8.33333C27.75 7.73502 27.265 7.25 26.6667 7.25Z" stroke="white" stroke-width="2" stroke-linecap="round" stroke-linejoin="round"/>
<path d="M26.6667 19.1667H21.25C20.6517 19.1667 20.1667 19.6517 20.1667 20.25V25.6667C20.1667 26.265 20.6517 26.75 21.25 26.75H26.6667C27.265 26.75 27.75 26.265 27.75 25.6667V20.25C27.75 19.6517 27.265 19.1667 26.6667 19.1667Z" stroke="white" stroke-width="2" stroke-linecap="round" stroke-linejoin="round"/>
<path d="M14.75 19.1667H9.33333C8.73502 19.1667 8.25 19.6517 8.25 20.25V25.6667C8.25 26.265 8.73502 26.75 9.33333 26.75H14.75C15.3483 26.75 15.8333 26.265 15.8333 25.6667V20.25C15.8333 19.6517 15.3483 19.1667 14.75 19.1667Z" stroke="white" stroke-width="2" stroke-linecap="round" stroke-linejoin="round"/>
</g>
<defs>
<filter id="filter0_d_1_14" x="0" y="0" width="36" height="36" filterUnits="userSpaceOnUse" color-interpolation-filters="sRGB">
<feFlood flood-opacity="0" result="BackgroundImageFix"/>
<feColorMatrix in="SourceAlpha" type="matrix" values="0 0 0 0 0 0 0 0 0 0 0 0 0 0 0 0 0 0 127 0" result="hardAlpha"/>
<feOffset dy="1"/>
<feGaussianBlur stdDeviation="1"/>
<feComposite in2="hardAlpha" operator="out"/>
<feColorMatrix type="matrix" values="0 0 0 0 0 0 0 0 0 0 0 0 0 0 0 0 0 0 0.05 0"/>
<feBlend mode="normal" in2="BackgroundImageFix" result="effect1_dropShadow_1_14"/>
<feBlend mode="normal" in="SourceGraphic" in2="effect1_dropShadow_1_14" result="shape"/>
</filter>
<linearGradient id="paint0_linear_1_14" x1="18" y1="1" x2="18" y2="33" gradientUnits="userSpaceOnUse">
<stop stop-color="#6366F1"/>
<stop offset="1" stop-color="#A855F7"/>
</linearGradient>
</defs>
</svg>
